:SAMPLES-PER-SECOND 30
:FULLY-SPECIFIED
:DEGREES
310
root  2.99445 40.4379 -9.80151 -5.51813 -13.6731 2.00099
RightUpLeg  -0.30143 -6.47422 -7.3253
RightLeg  15.684 9.50987 2.44393
RightFoot  -9.79309 -0.0892777 1.666
RightToes  0.000482159 0.542163 -0.142577
Spine  8.9017 -0.321494 5.72757
Spine1  5.70899 1.78893 -6.99965
HEad  -10.3735 38.9262 -21.6764
LeftShoulder1  10.8353 -15.1564 -50.6911
LeftArm  -5.1768 5.17535 -17.0508
LeftForeArm  22.3915 -10.8293 -6.91011
LeftHand  -0.25398 0.0180481 5.50724
RightShoulder  6.36319 11.0214 37.7712
RightArm  4.06357 -14.5214 35.0086
RightForeArm  -6.39995 17.0018 6.88756
RightHand  -1.99471 4.97097 -22.4398
LeftUpLeg  -4.5243 -2.42303 -6.51386
LeftLeg  8.94957 -15.5053 -3.41207
LeftFoot  2.74061 -0.400186 3.11247
LeftToes  1.06248e-005 4.65854e-005 -8.185e-006
311
root  3.02323 40.4522 -10.2349 -4.2532 -9.06409 1.71323
RightUpLeg  -0.574431 -10.5377 -8.27236
RightLeg  14.4916 8.96804 3.45841
RightFoot  -9.18467 -0.122666 3.21868
RightToes  0.000482159 0.542163 -0.142577
Spine  9.42956 -0.0760501 8.32759
Spine1  5.67276 2.53209 -8.31661
HEad  -9.47865 42.961 -23.3343
LeftShoulder1  10.6944 -14.9524 -50.586
LeftArm  -3.57799 5.00707 -17.0393
LeftForeArm  19.997 -13.5382 -6.39235
LeftHand  -0.25398 0.0180481 5.50724
RightShoulder  6.28413 11.0723 37.0987
RightArm  5.97643 -14.5684 33.6744
RightForeArm  -7.16044 17.4182 6.86469
RightHand  -2.02833 5.10801 -22.5206
LeftUpLeg  -6.44413 -4.21732 -6.64219
LeftLeg  8.91563 -17.8263 -3.28907
LeftFoot  2.84276 0.00443705 -0.188728
LeftToes  1.06248e-005 4.65854e-005 -8.185e-006
312
root  3.041 40.4667 -10.661 -2.76941 -4.3898 1.62767
RightUpLeg  -1.19066 -12.2312 -8.91847
RightLeg  13.4004 5.8367 4.03695
RightFoot  -8.76002 -0.155464 4.26425
RightToes  0.000482159 0.542163 -0.142577
Spine  9.67186 0.259957 10.1011
Spine1  5.55828 3.09347 -8.82163
HEad  -8.44426 46.0655 -24.3364
LeftShoulder1  10.5189 -14.7234 -50.3829
LeftArm  -1.27825 5.37567 -17.5221
LeftForeArm  17.0826 -17.0443 -5.41731
LeftHand  -0.25398 0.0180481 5.50724
RightShoulder  6.21559 11.1052 36.5483
RightArm  7.02225 -14.2773 31.8219
RightForeArm  -6.32214 16.8729 7.13761
RightHand  -2.0476 5.26531 -22.4079
LeftUpLeg  -8.61386 -4.93202 -6.58038
LeftLeg  8.60454 -17.9322 -3.22224
LeftFoot  2.18007 0.619621 -5.36075
LeftToes  1.06248e-005 4.65854e-005 -8.185e-006
313
root  3.06046 40.4959 -11.0629 -1.29303 0.471344 1.73023
RightUpLeg  -1.90539 -12.704 -9.36681
RightLeg  12.4743 1.42275 4.17428
RightFoot  -8.3524 -0.186138 4.95379
RightToes  0.000482159 0.542163 -0.142577
Spine  9.83049 0.487447 11.1314
Spine1  5.43772 3.34328 -8.76944
HEad  -7.94019 48.0972 -25.0196
LeftShoulder1  10.3575 -14.518 -50.1765
LeftArm  -0.235954 6.22861 -18.2291
LeftForeArm  15.3083 -20.5354 -4.43422
LeftHand  -0.25398 0.0180481 5.50724
RightShoulder  6.11503 11.0574 36.011
RightArm  6.4398 -13.5504 29.9176
RightForeArm  -3.63674 15.1879 7.75056
RightHand  -1.99414 5.21995 -21.9324
LeftUpLeg  -10.6846 -4.0508 -6.56397
LeftLeg  8.26734 -14.5069 -3.14049
LeftFoot  1.07341 1.03562 -9.556
LeftToes  1.06248e-005 4.65854e-005 -8.185e-006
314
root  3.09856 40.5598 -11.4314 0.0612183 5.61911 1.99279
RightUpLeg  -2.2055 -12.8773 -9.93481
RightLeg  11.2629 -3.35602 4.22388
RightFoot  -7.71749 -0.222828 5.38329
RightToes  0.000482159 0.542163 -0.142577
Spine  9.95646 0.490764 11.6516
Spine1  5.37598 3.28539 -8.53159
HEad  -7.77017 48.8384 -25.2903
LeftShoulder1  10.2746 -14.4221 -50.0422
LeftArm  -1.35809 7.39727 -18.8559
LeftForeArm  15.8187 -23.339 -4.17064
LeftHand  -0.25398 0.0180481 5.50724
RightShoulder  5.98371 10.9656 35.3837
RightArm  4.34809 -12.7706 28.3006
RightForeArm  -0.232576 12.9029 8.39235
RightHand  -1.88411 4.93673 -21.3097
LeftUpLeg  -12.4248 -2.04399 -6.81466
LeftLeg  8.19873 -8.95973 -3.01887
LeftFoot  -0.0245923 1.03228 -10.3732
LeftToes  1.06248e-005 4.65854e-005 -8.185e-006
315
root  3.1516 40.6439 -11.7589 1.35767 10.8462 2.38333
RightUpLeg  -2.07688 -13.0553 -10.6046
RightLeg  9.70467 -8.22089 4.32154
RightFoot  -6.8938 -0.265727 5.6289
RightToes  0.000482159 0.542163 -0.142577
Spine  10.0416 0.412434 11.7886
Spine1  5.24874 3.10513 -8.23919
HEad  -7.31956 48.278 -24.9024
LeftShoulder1  10.2448 -14.4246 -49.891
LeftArm  -3.05613 8.63595 -19.3933
LeftForeArm  17.3336 -25.1162 -4.45508
LeftHand  -0.25398 0.0180481 5.50724
RightShoulder  5.85899 10.8673 34.809
RightArm  1.81163 -12.3851 26.9429
RightForeArm  2.02962 10.8515 8.7072
RightHand  -1.80873 4.71111 -20.925
LeftUpLeg  -13.9226 0.155821 -7.10122
LeftLeg  8.40666 -4.36603 -2.92324
LeftFoot  -0.719191 0.823863 -8.80785
LeftToes  1.06248e-005 4.65854e-005 -8.185e-006
316
root  3.21103 40.7119 -12.0376 2.6062 15.7506 2.84064
RightUpLeg  -1.88708 -13.3676 -11.1772
RightLeg  8.34605 -12.7265 4.32161
RightFoot  -6.13711 -0.317463 6.05656
RightToes  0.000482159 0.542163 -0.142577
Spine  10.2402 0.437576 11.6703
Spine1  4.91591 3.01993 -7.94347
HEad  -6.73092 46.7271 -24.1209
LeftShoulder1  10.1925 -14.4313 -49.6186
LeftArm  -3.80648 9.71377 -19.973
LeftForeArm  18.0831 -25.7956 -4.57082
LeftHand  -0.25398 0.0180481 5.50724
RightShoulder  5.76071 10.7495 34.4614
RightArm  -0.301077 -12.4366 25.7753
RightForeArm  2.13874 9.48905 8.73189
RightHand  -1.83986 4.8379 -21.0182
LeftUpLeg  -15.2742 2.00938 -7.03894
LeftLeg  8.76993 -2.28891 -2.86905
LeftFoot  -0.884637 0.687971 -7.45834
LeftToes  1.06248e-005 4.65854e-005 -8.185e-006
317
root  3.29123 40.7492 -12.2613 3.65262 20.0586 3.27463
RightUpLeg  -1.73203 -13.6415 -11.6434
RightLeg  7.54182 -16.7197 4.18008
RightFoot  -5.58264 -0.372786 6.64941
RightToes  0.000482159 0.542163 -0.142577
Spine  10.6914 0.572434 11.5238
Spine1  4.49276 3.11384 -7.80109
HEad  -6.56302 44.674 -23.4281
LeftShoulder1  10.1135 -14.3958 -49.332
LeftArm  -4.11837 10.5843 -20.4666
LeftForeArm  18.1109 -25.4815 -4.50022
LeftHand  -0.25398 0.0180481 5.50724
RightShoulder  5.69406 10.6359 34.3169
RightArm  -1.7388 -12.6598 24.9158
RightForeArm  0.384132 8.82868 8.69571
RightHand  -1.97362 5.2913 -21.5772
LeftUpLeg  -16.426 3.4934 -6.50006
LeftLeg  9.21733 -1.6954 -2.70512
LeftFoot  -0.684423 0.656185 -6.98704
LeftToes  1.06248e-005 4.65854e-005 -8.185e-006
318
root  3.42265 40.7688 -12.4244 4.39835 23.7479 3.62801
RightUpLeg  -1.38982 -13.8835 -12.1202
RightLeg  7.04686 -20.1111 4.06083
RightFoot  -5.12335 -0.410486 6.90886
RightToes  0.000482159 0.542163 -0.142577
Spine  11.1907 0.728379 11.4498
Spine1  4.30823 3.3242 -7.88941
HEad  -6.81327 42.5617 -22.9654
LeftShoulder1  10.0776 -14.3517 -49.278
LeftArm  -4.31263 11.3553 -20.5919
LeftForeArm  17.5314 -24.3772 -4.29192
LeftHand  -0.25398 0.0180481 5.50724
RightShoulder  5.67678 10.6021 34.2912
RightArm  -2.39057 -12.7483 24.4371
RightForeArm  -2.13756 8.76762 8.73077
RightHand  -2.12261 5.72352 -22.288
LeftUpLeg  -17.2479 4.76995 -5.47213
LeftLeg  9.52189 -0.831091 -2.41089
LeftFoot  -0.315631 0.637995 -6.58858
LeftToes  1.06248e-005 4.65854e-005 -8.185e-006
319
root  3.62808 40.7787 -12.5248 4.99075 26.9604 3.94809
RightUpLeg  -0.820196 -14.1422 -12.6768
RightLeg  6.57437 -22.884 4.05206
RightFoot  -4.65778 -0.438342 6.95296
RightToes  0.000482159 0.542163 -0.142577
Spine  11.3542 0.855262 11.3023
Spine1  4.57914 3.53812 -8.08651
HEad  -7.08144 40.659 -22.6519
LeftShoulder1  10.1149 -14.3275 -49.5275
LeftArm  -4.51616 12.1607 -20.289
LeftForeArm  16.6453 -22.6596 -4.08399
LeftHand  -0.25398 0.0180481 5.50724
RightShoulder  5.70795 10.6499 34.3744
RightArm  -2.18456 -12.4514 24.2823
RightForeArm  -4.30803 9.19511 8.83505
RightHand  -2.17915 5.78297 -22.7417
LeftUpLeg  -17.7432 5.91873 -4.02623
LeftLeg  9.41528 0.970353 -2.15982
LeftFoot  0.02065 0.583785 -5.86763
LeftToes  1.06248e-005 4.65854e-005 -8.185e-006
